<svg width="11" height="10" viewBox="0 0 11 10" fill="none" xmlns="http://www.w3.org/2000/svg">
<path d="M10.0002 3.68406H2.63164V2.16455C2.63164 1.6398 2.98849 1.15242 3.50588 1.06715C3.657 1.04144 3.81191 1.04899 3.95982 1.08928C4.10772 1.12957 4.24506 1.20163 4.36226 1.30044C4.47946 1.39926 4.5737 1.52244 4.63841 1.6614C4.70313 1.80037 4.73676 1.95178 4.73696 2.10507H5.78961C5.78936 1.81101 5.72755 1.52026 5.60817 1.25152C5.48878 0.982789 5.31447 0.74202 5.09643 0.544708C4.8784 0.347396 4.62147 0.19791 4.34219 0.105868C4.06291 0.013826 3.76745 -0.0187341 3.47482 0.0102827C2.38058 0.116601 1.57899 1.09926 1.57899 2.19876V3.68406H0.526329C0.386738 3.68406 0.252864 3.73951 0.154158 3.83821C0.0554523 3.93692 0 4.07079 0 4.21038V5.26304C0 6.63465 0.881074 7.80153 2.10531 8.2368V10H3.15797V8.42101H7.3686V10H8.42126V8.2368C9.6455 7.80153 10.5266 6.63465 10.5266 5.26304V4.21038C10.5266 4.07079 10.4711 3.93692 10.3724 3.83821C10.2737 3.73951 10.1398 3.68406 10.0002 3.68406Z" fill="#0C7F81"/>
</svg>
