<svg width="66" height="65" viewBox="0 0 66 65" fill="none" xmlns="http://www.w3.org/2000/svg">
<circle cx="33" cy="32.5" r="30.5" stroke="#004857" stroke-width="4"/>
<path d="M23 39H27C27 41.16 29.74 43 33 43C36.26 43 39 41.16 39 39C39 36.8 36.92 36 32.52 34.94C28.28 33.88 23 32.56 23 27C23 23.42 25.94 20.38 30 19.36V15H36V19.36C40.06 20.38 43 23.42 43 27H39C39 24.84 36.26 23 33 23C29.74 23 27 24.84 27 27C27 29.2 29.08 30 33.48 31.06C37.72 32.12 43 33.44 43 39C43 42.58 40.06 45.62 36 46.64V51H30V46.64C25.94 45.62 23 42.58 23 39Z" fill="#004857"/>
</svg>
