<svg width="66" height="65" viewBox="0 0 66 65" fill="none" xmlns="http://www.w3.org/2000/svg">
<circle cx="33" cy="32.5" r="30.5" stroke="#004857" stroke-width="4"/>
<path d="M32.9639 14C30.478 14 28.4632 16.0149 28.4632 18.5007C28.4632 20.9863 30.478 23.0014 32.9639 23.0014C35.4495 23.0014 37.4646 20.9863 37.4646 18.5007C37.4646 16.0149 35.4495 14 32.9639 14ZM20.8696 23.814C20.6247 23.8162 20.3864 23.8582 20.1665 23.9374C19.5801 24.1486 19.1257 24.5619 18.755 25.0318C18.4633 25.4017 18.2308 25.8157 18.0307 26.2367C17.485 25.7244 16.8883 24.9681 16.2787 23.8162L15 24.4928C15.8129 26.0288 16.6554 27.0616 17.5149 27.7129C17.4824 27.8577 17.442 28.007 17.4214 28.144C17.2602 29.2131 17.6555 30.1505 18.1959 30.9357C18.6251 31.5591 19.1463 32.1308 19.6532 32.7333C19.0506 34 18.741 35.3446 18.7395 36.7009C18.7452 39.0137 19.6463 41.2677 21.318 43.15L21.6117 42.0958L23.0053 42.4841L20.9856 49.7319C22.6619 50.2481 24.284 50.2559 25.938 49.6457L27.4431 44.2827L28.8359 44.6737L28.1213 47.2206C29.5588 47.6216 31.0688 47.8296 32.5904 47.836C33.5826 47.831 34.5725 47.7397 35.5488 47.563L34.8302 44.378L36.2413 44.0595L37.4465 49.4019C39.4506 50.3074 41.3441 50.2518 43.2945 49.5001L41.2761 43.152L42.6546 42.7136L43.054 43.9703C44.8057 40.909 48.58 41.6329 50.434 40.749C51.3732 40.4361 50.8696 35.1333 50.8291 34.8788C50.7985 34.6867 48.4394 34.572 47.6014 34.6981C47.1212 34.7705 46.2878 33.7274 45.4001 32.4802C44.9671 31.6373 44.4069 30.8402 43.7322 30.1071C43.4116 29.6831 43.5124 29.8586 43.2071 29.5868C43.2646 30.125 43.3775 30.5758 43.5408 30.8912L42.256 31.5564C41.663 30.411 41.6147 28.916 41.801 27.3082C41.9282 26.2096 42.1875 25.0613 42.5267 23.9541C41.5775 24.497 40.7082 25.359 39.9533 26.4123C38.855 27.9445 38.0142 29.8321 37.4902 31.447L36.1142 31.0005C36.3374 30.3125 36.6125 29.5816 36.9384 28.8438C35.7757 28.3154 34.0879 28.0594 32.3231 28.1344C30.4061 28.2156 28.3986 28.6742 26.8545 29.4364L26.2139 28.139C27.9925 27.2611 30.1619 26.778 32.2618 26.6889C32.5243 26.6778 32.7858 26.6726 33.0451 26.6736C34.708 26.6805 36.2898 26.9451 37.5679 27.54C37.748 27.1982 37.939 26.8621 38.1405 26.5324C36.3933 25.9055 34.5035 25.5762 32.5903 25.5656C27.5105 25.5701 22.8412 27.8097 20.4237 31.4015C20.0255 30.9346 19.6582 30.5086 19.3877 30.1156C18.965 29.5016 18.7763 29.016 18.8496 28.4177C19.6901 28.671 20.5078 28.5841 21.1558 28.2674C21.9849 27.862 22.5561 27.1543 22.8012 26.3876C22.9238 26.0042 22.9664 25.595 22.8665 25.1878C22.7666 24.7807 22.4944 24.3814 22.0951 24.1468C21.7044 23.9172 21.2778 23.8103 20.8695 23.8139L20.8696 23.814ZM20.8959 25.245C20.9227 25.2438 20.9496 25.2446 20.9763 25.2474C21.0858 25.2585 21.2062 25.3026 21.3623 25.3943C21.4318 25.4351 21.4416 25.4516 21.4615 25.5327C21.4814 25.6139 21.4814 25.7654 21.4233 25.9471C21.307 26.3107 20.9642 26.7508 20.5204 26.9678C20.1711 27.1386 19.7671 27.2023 19.2618 27.0359C19.4365 26.6314 19.6494 26.2335 19.8906 25.9279C20.1524 25.5959 20.4323 25.3791 20.6564 25.2984C20.7403 25.2683 20.8167 25.2483 20.8957 25.245H20.8959ZM43.2511 33.1732C43.9611 33.1732 44.537 33.7489 44.537 34.4591C44.537 35.1693 43.9611 35.745 43.2511 35.745C42.5408 35.745 41.9652 35.1693 41.9652 34.4591C41.9652 33.7489 42.5408 33.1732 43.2511 33.1732Z" fill="#004857"/>
</svg>
