<svg width="9" height="8" viewBox="0 0 9 8" fill="none" xmlns="http://www.w3.org/2000/svg">
<path d="M1.5 7V7.2625C1.5 7.47083 1.42917 7.64583 1.2875 7.7875C1.14583 7.92917 0.966668 8 0.750001 8C0.541668 8 0.364501 7.927 0.218501 7.781C0.0725012 7.635 -0.000332194 7.458 1.13895e-06 7.25V3.5L1.05 0.5C1.1 0.35 1.1895 0.229167 1.3185 0.1375C1.4475 0.0458334 1.59133 0 1.75 0H7.25C7.40833 0 7.55217 0.0458334 7.6815 0.1375C7.81083 0.229167 7.90033 0.35 7.95 0.5L9 3.5V7.2625C9 7.47083 8.92917 7.64583 8.7875 7.7875C8.64583 7.92917 8.46667 8 8.25 8C8.04167 8 7.86467 7.927 7.719 7.781C7.57333 7.635 7.50033 7.458 7.5 7.25V7H1.5ZM1.4 2.5H7.6L7.075 1H1.925L1.4 2.5ZM2.25 5.5C2.45833 5.5 2.6355 5.427 2.7815 5.281C2.9275 5.135 3.00033 4.958 3 4.75C3 4.54167 2.927 4.3645 2.781 4.2185C2.635 4.0725 2.458 3.99967 2.25 4C2.04167 4 1.8645 4.073 1.7185 4.219C1.5725 4.365 1.49967 4.542 1.5 4.75C1.5 4.95833 1.573 5.1355 1.719 5.2815C1.865 5.4275 2.042 5.50033 2.25 5.5ZM6.75 5.5C6.95833 5.5 7.1355 5.427 7.2815 5.281C7.4275 5.135 7.50033 4.958 7.5 4.75C7.5 4.54167 7.427 4.3645 7.281 4.2185C7.135 4.0725 6.958 3.99967 6.75 4C6.54167 4 6.3645 4.073 6.2185 4.219C6.0725 4.365 5.99967 4.542 6 4.75C6 4.95833 6.073 5.1355 6.219 5.2815C6.365 5.4275 6.542 5.50033 6.75 5.5Z" fill="#0C7F81"/>
</svg>
