<svg width="66" height="65" viewBox="0 0 66 65" fill="none" xmlns="http://www.w3.org/2000/svg">
<circle cx="33" cy="32.5" r="30.5" stroke="#004857" stroke-width="4"/>
<g clip-path="url(#clip0_280_13)">
<path d="M34.6046 40.952V41.4015C34.7244 41.4015 34.8393 41.3542 34.924 41.2699C35.0087 41.1856 35.0563 41.0712 35.0563 40.952H34.6046ZM30.9915 40.952H30.5399C30.5399 41.0712 30.5874 41.1856 30.6721 41.2699C30.7568 41.3542 30.8717 41.4015 30.9915 41.4015V40.952ZM31.4431 43.1996H34.153V42.3005H31.4431V43.1996ZM29.2572 35.468L29.2482 35.5309L30.1424 35.6568L30.1523 35.5939L29.2572 35.468ZM32.7981 32.4113C31.937 32.4112 31.1048 32.7203 30.4543 33.2818C29.8038 33.8433 29.3788 34.6196 29.2572 35.468L30.1523 35.5939C30.2435 34.9599 30.5604 34.38 31.0466 33.9605C31.5327 33.541 32.1546 33.3102 32.7981 33.3104V32.4113ZM36.3389 35.468C36.2174 34.6196 35.7923 33.8433 35.1418 33.2818C34.4913 32.7203 33.6591 32.4112 32.7981 32.4113V33.3104C33.4414 33.3104 34.0632 33.5413 34.5494 33.9607C35.0355 34.3802 35.3534 34.96 35.4447 35.5939L36.3389 35.468ZM36.348 35.5309L36.3389 35.468L35.4447 35.5939L35.4528 35.6568L36.348 35.5309ZM35.6344 38.2181C36.2035 37.4863 36.4907 36.5333 36.348 35.5309L35.4537 35.6577C35.5055 36.0112 35.4849 36.3715 35.3933 36.7169C35.3018 37.0624 35.141 37.3858 34.9208 37.6679L35.6344 38.2181ZM34.153 39.5136V40.952H35.0563V39.5145H34.153V39.5136ZM34.6046 40.5025H30.9915V41.4015H34.6046V40.5025ZM31.4431 40.952V39.5145H30.5399V40.952H31.4431ZM29.2482 35.5309C29.1795 36.0036 29.2073 36.4852 29.3299 36.9469C29.4525 37.4086 29.6674 37.8409 29.9618 38.2181L30.6763 37.6679C30.456 37.3858 30.2944 37.0624 30.2028 36.7169C30.1112 36.3715 30.0907 36.0103 30.1424 35.6568L29.2482 35.5309ZM31.4431 39.5136C31.4431 38.7737 31.0475 38.1444 30.6754 37.667L29.9618 38.2181C30.3077 38.6631 30.5399 39.0875 30.5399 39.5136H31.4431ZM34.9208 37.667C34.5477 38.1453 34.153 38.7737 34.153 39.5136H35.0563C35.0563 39.0875 35.2884 38.6631 35.6344 38.2181L34.9208 37.667ZM32.3464 29.7143V31.5123H33.2497V29.7143H32.3464ZM26.0234 36.9064H27.83V36.0074H26.0234V36.9064ZM37.7661 36.9064H39.5727V36.0074H37.7661V36.9064ZM29.0531 32.9921L27.6981 31.6436L27.0586 32.2801L28.4135 33.6286L29.0531 32.9921ZM37.1826 33.6286L38.5375 32.2801L37.898 31.6436L36.5431 32.9921L37.1826 33.6286Z" fill="#004857"/>
<path d="M44.4545 48H21.5455C21.1115 48 20.6952 47.8284 20.3884 47.523C20.0815 47.2176 19.9091 46.8033 19.9091 46.3714V31.7137H15L31.8987 16.424C32.2 16.1512 32.5927 16 33 16C33.4073 16 33.8 16.1512 34.1013 16.424L51 31.7137H46.0909V46.3714C46.0909 46.8033 45.9185 47.2176 45.6116 47.523C45.3048 47.8284 44.8885 48 44.4545 48ZM23.1818 44.7427H42.8182V28.7121L33 19.8295L23.1818 28.7121V44.7427Z" fill="#004857"/>
</g>
<defs>
<clipPath id="clip0_280_13">
<rect width="36" height="32" fill="white" transform="translate(15 16)"/>
</clipPath>
</defs>
</svg>
