<svg width="40" height="40" viewBox="0 0 40 40" fill="none" xmlns="http://www.w3.org/2000/svg">
<path d="M9.52378 39.9614C8.42996 39.9699 7.3373 39.971 6.24348 39.9903C5.95417 39.9957 5.80319 39.9206 5.84237 39.6297C5.8539 39.5416 5.84353 39.4515 5.84353 39.3613C5.84353 32.7113 5.84698 26.0613 5.83546 19.4113C5.83431 19.0238 5.9438 18.7469 6.24578 18.4731C7.33153 17.4899 8.38847 16.4797 9.58026 15.3634C9.58026 15.8979 9.5987 16.2919 9.5745 16.6837C9.55721 16.9564 9.63212 17.0508 9.94678 17.0573C13.4622 17.1227 16.8174 17.8473 20.0159 19.2084C20.2879 19.2138 20.5242 19.3008 20.7697 19.421C22.6323 20.3302 24.367 21.4069 25.9426 22.7079C27.0376 23.6117 28.0403 24.595 28.9463 25.6631C29.4534 26.3125 29.9744 26.9533 30.4458 27.6264C30.5092 27.7144 30.5703 27.8035 30.6348 27.8915C32.2577 30.3851 33.3861 33.0548 33.9255 35.9327C34.0108 36.3879 34.0811 36.8473 34.0592 37.3121C34.0696 37.5343 34.0304 37.7597 34.1042 37.9776C34.1422 38.2546 34.08 38.5358 34.1422 38.8117C34.2137 39.986 34.2137 39.986 32.9654 39.986C30.4493 39.986 27.9331 39.9753 25.4182 39.9957C24.9917 39.9989 24.8534 39.8798 24.8407 39.4955C24.7831 37.6631 24.352 35.9166 23.5532 34.2313C22.7003 32.4322 21.497 30.8832 19.9871 29.5253C19.7923 29.5339 19.6736 29.4115 19.5445 29.3063C17.1044 27.3097 14.2541 26.1976 11.036 25.8756C10.7882 25.881 10.545 25.8595 10.2995 25.8294C9.79464 25.7693 9.69667 25.8434 9.684 26.3307C9.67016 26.8417 9.65288 27.3537 9.72088 27.8647C9.67362 30.0996 9.69552 32.3335 9.67593 34.5662C9.67477 34.7294 9.7059 34.8861 9.74969 35.0418C9.68515 36.4136 9.6644 37.7865 9.70474 39.1595C9.71396 39.4429 9.80156 39.7381 9.52378 39.9614Z" fill="#17B693"/>
<path d="M39.8278 23.2832C38.4193 21.9973 37.05 20.6748 35.6646 19.3684C30.607 14.5991 25.4952 9.87807 20.4145 5.13022C20.1264 4.86186 19.9858 4.8157 19.6665 5.11412C13.1508 11.2059 6.62019 17.2838 0.0918613 23.3648C0.0665041 23.338 0.0192468 23.3122 0.0192468 23.2854C0.0227047 21.6688 -0.0429914 20.0511 0.0503693 18.4345C1.33321 17.2301 2.61261 16.0225 3.90121 14.8224C9.09599 9.98112 14.2988 5.14632 19.4809 0.293277C19.8797 -0.0802819 20.0711 -0.110339 20.4895 0.280395C26.974 6.34751 33.4793 12.3953 39.9799 18.4474C40.0088 19.9459 39.9857 21.4455 39.9892 22.944C39.9903 23.0696 40.0606 23.2446 39.8278 23.2832Z" fill="#2D7DBB"/>
<path d="M34.1421 38.8117C33.9853 38.5412 34.1006 38.246 34.0568 37.9658C33.9507 37.7672 34.0268 37.5558 34.0038 37.3518C34.0038 33.8245 32.5953 29.1357 30.6866 26.3264C30.5241 26.8363 30.8364 27.3967 30.4676 27.869C30.4365 27.8142 30.4065 27.7584 30.3754 27.7037C30.1276 27.255 30.2082 26.7687 30.2036 26.2942C30.2002 25.9336 30.0642 25.7607 29.6527 25.8402C29.3864 25.8917 29.1225 25.8853 28.8839 25.7371C28.084 24.9256 27.3302 24.0765 26.4635 23.3219C24.8786 21.9404 23.1417 20.7585 21.226 19.8053C20.8238 19.6045 20.4192 19.4081 20.0146 19.2095C23.1682 17.8398 26.4923 17.142 29.9639 17.0605C30.3454 17.0519 30.4676 16.9649 30.4284 16.6064C30.3881 16.2393 30.4192 15.8647 30.4192 15.4997C30.6347 15.4299 30.6912 15.578 30.7742 15.6543C31.8092 16.6107 32.8362 17.5757 33.8735 18.5311C34.0614 18.7039 34.1628 18.8757 34.1617 19.1354C34.1582 25.6062 34.164 32.0758 34.1674 38.5465C34.1686 38.6346 34.1513 38.7237 34.1421 38.8117Z" fill="#2D7DBB"/>
<path d="M11.1097 25.7447C14.511 26.1053 17.5032 27.2969 19.987 29.5264C18.9151 30.4378 18.0576 31.4897 17.2876 32.6448C16.4036 33.9715 15.8377 35.3842 15.4469 36.8741C15.2349 37.6814 15.0965 38.5068 15.1542 39.3463C15.0066 39.5459 15.206 39.8057 15.0239 40C13.1901 39.9871 11.3552 39.9742 9.52141 39.9614C9.52026 38.904 9.5364 37.8477 9.5122 36.7904C9.49836 36.2054 9.58711 35.6289 9.61593 35.0482C9.54446 33.73 9.68739 32.4247 9.85336 31.1183C10.0724 29.3987 10.4654 27.7123 10.9368 26.0409C10.9299 25.9089 10.9841 25.8091 11.1097 25.7447Z" fill="#2D7DBB"/>
<path d="M9.50164 8.98173C8.35826 10.1099 7.21603 11.237 6.07265 12.3652C5.99082 12.3201 5.90898 12.274 5.82715 12.2289C5.82715 10.4019 5.82715 8.57597 5.82715 6.74897C6.62129 6.58795 7.42581 6.70066 8.22571 6.68778C8.65678 6.68026 9.21234 6.49671 9.49242 6.78332C9.74023 7.03665 9.56849 7.53687 9.56158 7.92653C9.55466 8.27755 9.65263 8.63716 9.50164 8.98173Z" fill="#17B694"/>
<path d="M30.4678 27.869C30.4781 27.5481 30.492 27.2271 30.4966 26.9061C30.5012 26.5852 30.4977 26.2632 30.4977 25.925C31.8797 27.3806 34.2806 32.8316 34.0558 37.3175C34.0178 37.3701 33.9844 37.3647 33.9567 37.3089C33.6893 34.811 32.9493 32.4355 31.7794 30.178C31.3737 29.3955 30.9069 28.6387 30.4678 27.869Z" fill="#01416D"/>
<path d="M11.0219 25.9325C11.1672 26.0259 11.1165 26.1429 11.0773 26.2664C10.2946 28.7718 9.91775 31.3395 9.72296 33.9361C9.69529 34.3065 9.59502 34.6736 9.61692 35.0493C9.47515 34.9151 9.53278 34.7455 9.53163 34.5909C9.52817 32.5031 9.52702 30.4141 9.53278 28.3263C9.53278 28.1331 9.5835 27.9399 9.61116 27.7466C9.91544 27.0296 10.3373 26.393 11.0219 25.9325Z" fill="#02456F"/>
<path d="M33.9576 37.31C33.9898 37.3153 34.0232 37.3186 34.0567 37.3186C34.0567 37.5343 34.0567 37.7512 34.0578 37.9669C33.8665 37.7683 33.9656 37.5322 33.9576 37.31Z" fill="#0C7F81"/>
</svg>
