<svg width="14" height="6" viewBox="0 0 14 6" fill="none" xmlns="http://www.w3.org/2000/svg">
<path d="M3.25 1.375V3.25M4.75 1.375V3.25M6.25 1.375V4M7.75 1.375V3.25M9.25 1.375V3.25M10.75 1.375V4M1.75 1H12.25C12.4489 1 12.6397 1.07902 12.7803 1.21967C12.921 1.36032 13 1.55109 13 1.75V4.75C13 4.94891 12.921 5.13968 12.7803 5.28033C12.6397 5.42098 12.4489 5.5 12.25 5.5H1.75C1.55109 5.5 1.36032 5.42098 1.21967 5.28033C1.07902 5.13968 1 4.94891 1 4.75V1.75C1 1.55109 1.07902 1.36032 1.21967 1.21967C1.36032 1.07902 1.55109 1 1.75 1Z" stroke="#0C7F81" stroke-linecap="round" stroke-linejoin="round"/>
</svg>
